Coordinates
version=1
nRows=11
nColumns=40
inDegrees=yes

Units are S.I. units (second, meters, Newtons, ...)
Angles are in degrees.

endheader
time	pelvis_tilt	pelvis_list	pelvis_rotation	pelvis_tx	pelvis_ty	pelvis_tz	hip_flexion_r	hip_adduction_r	hip_rotation_r	knee_angle_r	knee_angle_r_beta	ankle_angle_r	subtalar_angle_r	mtp_angle_r	hip_flexion_l	hip_adduction_l	hip_rotation_l	knee_angle_l	knee_angle_l_beta	ankle_angle_l	subtalar_angle_l	mtp_angle_l	lumbar_extension	lumbar_bending	lumbar_rotation	arm_flex_r	arm_add_r	arm_rot_r	elbow_flex_r	pro_sup_r	wrist_flex_r	wrist_dev_r	arm_flex_l	arm_add_l	arm_rot_l	elbow_flex_l	pro_sup_l	wrist_flex_l	wrist_dev_l
     51.63000000	     -2.61860514	     -2.79450671	      0.67385912	      1.00362114	      0.91975881	      0.40653032	     13.09781995	     -7.69198245	     -3.95997016	     48.14175643	     48.14175643	      6.11961153	     -9.48365440	    -21.00797810	     20.29019992	     -1.08314413	     -1.54250705	     31.05108109	     31.05108109	     16.23080301	    -16.63437023	      6.73204514	     -8.89893355	      6.16385890	      4.18831392	     26.39499851	    -12.39420743	     -1.21253063	     42.85833996	     44.36169125	      0.00000000	      0.00000000	     11.45214927	    -10.35711291	     18.84587389	     30.04248603	     43.63521959	      0.00000000	      0.00000000
     51.65235714	     -2.32878997	     -2.69349817	     -0.22612445	      1.00367038	      0.91808722	      0.40417551	     15.34471933	     -7.88943155	     -2.84635024	     52.29864282	     52.29864282	      4.41468442	    -11.50237287	    -20.17388989	     20.00450236	     -0.97164442	     -2.14926498	     31.89369182	     31.89369182	     16.86548319	    -17.13679365	      6.54255733	     -9.12300437	      6.22693611	      3.96056983	     23.30559155	    -12.40492879	     -1.08131957	     41.15691818	     44.41719179	      0.00000000	      0.00000000	     13.18739827	    -10.57890757	     18.61944210	     30.95772361	     43.70854933	      0.00000000	      0.00000000
     51.67471429	     -1.98599648	     -2.64460943	     -1.11492631	      1.00366009	      0.91669078	      0.40192714	     17.38998110	     -7.89566451	     -1.77179006	     56.00491761	     56.00491761	      2.91663860	    -13.41765733	    -18.63541253	     19.63015373	     -0.91488823	     -2.74731775	     32.69962241	     32.69962241	     17.55739824	    -17.52865210	      6.48004728	     -9.46675096	      6.26202860	      3.79984335	     20.08853883	    -12.51625272	     -1.02450218	     39.18084826	     44.48525238	      0.00000000	      0.00000000	     15.13284165	    -10.89103549	     18.33151096	     32.02024671	     43.79091176	      0.00000000	      0.00000000
     51.69707143	     -1.67446612	     -2.76849041	     -1.97443223	      1.00360793	      0.91573123	      0.40004920	     19.42771542	     -7.56866092	     -0.83651970	     59.58283985	     59.58283985	      4.05477001	    -13.40199000	    -10.14245679	     19.24739729	     -1.04475210	     -3.28320755	     33.48017509	     33.48017509	     18.86057936	    -17.58215349	      7.93789477	     -9.74919766	      6.49468059	      3.60084254	     17.65650820	    -12.28998436	     -2.25278804	     34.94992531	     44.81552967	      0.00000000	      0.00000000	     16.88250344	    -11.34732843	     17.84101589	     33.61448428	     44.00680087	      0.00000000	      0.00000000
     51.71942857	     -1.41610719	     -2.84940866	     -2.78451833	      1.00346710	      0.91526884	      0.39842439	     21.05900472	     -7.28069600	     -0.14837248	     61.85530160	     61.85530160	      3.22523056	    -14.86786719	     -8.45470223	     18.70637640	     -1.13072255	     -3.85848590	     33.78715567	     33.78715567	     19.34402117	    -17.78833803	      7.93768620	    -10.00061692	      6.68534265	      3.68082751	     14.36476539	    -12.63406362	     -2.39734426	     32.96160690	     44.90412292	      0.00000000	      0.00000000	     18.92390184	    -11.70653405	     17.38132105	     34.81152279	     44.12108894	      0.00000000	      0.00000000
     51.74178571	     -1.25575702	     -2.92336306	     -3.59333316	      1.00309777	      0.91532513	      0.39726358	     22.72054793	     -6.94815798	      0.40754960	     63.71247766	     63.71247766	      4.64112196	    -14.82870928	     -1.94636828	     18.13012814	     -1.21814814	     -4.43455689	     33.82317342	     33.82317342	     19.97347355	    -17.86507717	      8.37334399	    -10.24463953	      6.77976103	      3.35959911	     11.78015470	    -12.56251231	     -3.67808196	     30.10322333	     45.18700208	      0.00000000	      0.00000000	     20.71968722	    -12.27354421	     16.27905195	     36.15200221	     44.39619323	      0.00000000	      0.00000000
     51.76414286	     -1.19172156	     -3.00731155	     -4.33006455	      1.00262822	      0.91601365	      0.39652171	     24.00261775	     -6.61338085	      0.70747232	     64.24321361	     64.24321361	      4.52261771	    -15.75120856	     -1.29392290	     17.46940528	     -1.32349319	     -5.00656109	     33.44403534	     33.44403534	     20.19491601	    -17.93893007	      8.41467402	    -10.34666823	      6.90746054	      3.21919962	      8.75894763	    -12.83280870	     -3.79700995	     28.54578051	     45.25329686	      0.00000000	      0.00000000	     22.66594357	    -12.86877799	     15.72864647	     37.26040335	     44.50677380	      0.00000000	      0.00000000
     51.78650000	     -1.23610733	     -3.18769015	     -4.95477513	      1.00196418	      0.91719375	      0.39624084	     25.10948834	     -6.24271351	      0.69316282	     63.88404830	     63.88404830	      4.79070293	    -16.08897471	     -1.11841016	     16.83729292	     -1.53517783	     -5.44855709	     32.87317326	     32.87317326	     20.34479324	    -17.93724887	      8.50461440	    -10.34741304	      7.12639812	      2.38090254	      6.16390203	    -12.91675755	     -3.84620706	     27.46929398	     45.28522761	      0.00000000	      0.00000000	     24.38255909	    -14.02181918	     15.27105238	     37.88154267	     44.58555004	      0.00000000	      0.00000000
     51.80885714	     -1.30240210	     -3.31799426	     -5.69159011	      1.00111486	      0.91898978	      0.39660200	     26.03917909	     -5.69837639	      0.92660029	     62.71267468	     62.71267468	      5.43905155	    -16.41324282	     -0.54643116	     16.00274453	     -1.73740221	     -6.08384108	     31.85688259	     31.85688259	     20.27692872	    -17.83750625	      8.51797978	    -10.47390256	      7.17377568	      3.04193100	      2.98657475	    -13.31157182	     -3.97112219	     25.89105740	     45.35454226	      0.00000000	      0.00000000	     26.43063141	    -14.24958918	     14.34662503	     39.78190167	     44.74149203	      0.00000000	      0.00000000
     51.83121429	     -1.54871791	     -3.51652259	     -6.27539612	      1.00012160	      0.92094674	      0.39731561	     26.83411453	     -5.17846697	      0.83515980	     60.63990955	     60.63990955	      6.27272974	    -16.13377778	     -0.51331409	     15.32458351	     -2.02172268	     -6.57716668	     30.73016710	     30.73016710	     20.15041210	    -17.64882956	      8.53924792	    -10.35126328	      7.37312795	      2.73926218	      0.35816406	    -13.40196078	     -4.08608592	     24.95397405	     45.39212430	      0.00000000	      0.00000000	     28.07983191	    -15.12324763	     13.53324080	     40.96358245	     44.86531606	      0.00000000	      0.00000000
     51.85357143	     -1.80605819	     -3.71424635	     -6.90520038	      0.99900345	      0.92297422	      0.39855706	     27.38533195	     -4.60735953	      0.79580172	     57.76779977	     57.76779977	      6.79727688	    -15.59462872	     -1.88542218	     14.54209316	     -2.36523032	     -7.25333095	     29.34982049	     29.34982049	     19.25506049	    -17.60058560	      6.77338800	    -10.38453168	      7.47731669	      2.54866141	     -2.54013405	    -13.48653450	     -4.88985202	     25.26579032	     45.52407962	      0.00000000	      0.00000000	     29.10845636	    -15.67117293	      9.56184798	     44.05632443	     45.40095109	      0.00000000	      0.00000000
